<svg width="707" height="143" viewBox="0 0 707 143" fill="none" xmlns="http://www.w3.org/2000/svg">
<rect width="707" height="142.27" rx="71.1351" fill="#0083FF"/>
<path d="M116.74 88H123.064V73.1705H137.57V67.8693H123.064V58.392H139.104V53.0909H116.74V88ZM154.261 88.5114C160.364 88.5114 164.557 85.5284 165.648 80.9773L159.886 80.3295C159.051 82.5455 157.006 83.7045 154.347 83.7045C150.358 83.7045 147.716 81.0795 147.665 76.5966H165.903V74.7045C165.903 65.517 160.381 61.4773 153.938 61.4773C146.438 61.4773 141.545 66.983 141.545 75.0625C141.545 83.2784 146.369 88.5114 154.261 88.5114ZM147.682 72.4375C147.869 69.0966 150.341 66.2841 154.023 66.2841C157.568 66.2841 159.955 68.875 159.989 72.4375H147.682ZM182.714 88.5114C188.817 88.5114 193.01 85.5284 194.101 80.9773L188.339 80.3295C187.504 82.5455 185.459 83.7045 182.8 83.7045C178.811 83.7045 176.169 81.0795 176.118 76.5966H194.357V74.7045C194.357 65.517 188.834 61.4773 182.391 61.4773C174.891 61.4773 169.999 66.983 169.999 75.0625C169.999 83.2784 174.822 88.5114 182.714 88.5114ZM176.135 72.4375C176.322 69.0966 178.794 66.2841 182.476 66.2841C186.021 66.2841 188.408 68.875 188.442 72.4375H176.135ZM209.293 88.4602C213.793 88.4602 215.821 85.7841 216.793 83.875H217.168V88H223.236V53.0909H217.048V66.1477H216.793C215.855 64.2557 213.929 61.4773 209.31 61.4773C203.259 61.4773 198.503 66.2159 198.503 74.9432C198.503 83.5682 203.122 88.4602 209.293 88.4602ZM211.014 83.3977C206.94 83.3977 204.793 79.8182 204.793 74.9091C204.793 70.0341 206.906 66.5398 211.014 66.5398C214.986 66.5398 217.168 69.8295 217.168 74.9091C217.168 79.9886 214.952 83.3977 211.014 83.3977ZM230.084 88H236.152V83.875H236.51C237.482 85.7841 239.51 88.4602 244.01 88.4602C250.18 88.4602 254.8 83.5682 254.8 74.9432C254.8 66.2159 250.044 61.4773 243.993 61.4773C239.374 61.4773 237.447 64.2557 236.51 66.1477H236.254V53.0909H230.084V88ZM236.135 74.9091C236.135 69.8295 238.317 66.5398 242.288 66.5398C246.396 66.5398 248.51 70.0341 248.51 74.9091C248.51 79.8182 246.362 83.3977 242.288 83.3977C238.351 83.3977 236.135 79.9886 236.135 74.9091ZM267.58 88.5284C271.688 88.5284 274.142 86.6023 275.267 84.4034H275.472V88H281.403V70.4773C281.403 63.5568 275.761 61.4773 270.767 61.4773C265.261 61.4773 261.034 63.9318 259.67 68.7045L265.432 69.5227C266.045 67.733 267.784 66.1989 270.801 66.1989C273.665 66.1989 275.233 67.6648 275.233 70.2386V70.3409C275.233 72.1136 273.375 72.1989 268.756 72.6932C263.676 73.2386 258.818 74.7557 258.818 80.6534C258.818 85.8011 262.585 88.5284 267.58 88.5284ZM269.182 83.9943C266.608 83.9943 264.767 82.8182 264.767 80.5511C264.767 78.1818 266.83 77.1932 269.591 76.8011C271.21 76.5795 274.449 76.1705 275.25 75.5227V78.608C275.25 81.5227 272.898 83.9943 269.182 83.9943ZM299.028 88.5114C305.608 88.5114 309.801 84.608 310.244 79.0511H304.347C303.818 81.8636 301.79 83.483 299.08 83.483C295.227 83.483 292.739 80.2614 292.739 74.9091C292.739 69.625 295.278 66.4545 299.08 66.4545C302.045 66.4545 303.869 68.3636 304.347 70.8864H310.244C309.818 65.2102 305.386 61.4773 298.994 61.4773C291.324 61.4773 286.483 67.017 286.483 75.0114C286.483 82.9375 291.205 88.5114 299.028 88.5114ZM315.311 88H321.482V79.2045L323.732 76.8011L331.743 88H339.124L328.385 73.1193L338.527 61.8182H331.317L321.908 72.3352H321.482V53.0909H315.311V88ZM367.619 61.8182H362.455V55.5455H356.284V61.8182H352.568V66.5909H356.284V81.1477C356.25 86.0739 359.83 88.4943 364.466 88.358C366.222 88.3068 367.432 87.9659 368.097 87.7443L367.057 82.9205C366.716 83.0057 366.017 83.1591 365.25 83.1591C363.699 83.1591 362.455 82.6136 362.455 80.125V66.5909H367.619V61.8182ZM383.919 88.5114C391.589 88.5114 396.464 83.108 396.464 75.0114C396.464 66.8977 391.589 61.4773 383.919 61.4773C376.249 61.4773 371.374 66.8977 371.374 75.0114C371.374 83.108 376.249 88.5114 383.919 88.5114ZM383.953 83.5682C379.709 83.5682 377.629 79.7841 377.629 74.9943C377.629 70.2045 379.709 66.3693 383.953 66.3693C388.129 66.3693 390.209 70.2045 390.209 74.9943C390.209 79.7841 388.129 83.5682 383.953 83.5682ZM426.682 61.8182H421.517V55.5455H415.347V61.8182H411.631V66.5909H415.347V81.1477C415.312 86.0739 418.892 88.4943 423.528 88.358C425.284 88.3068 426.494 87.9659 427.159 87.7443L426.119 82.9205C425.778 83.0057 425.08 83.1591 424.312 83.1591C422.761 83.1591 421.517 82.6136 421.517 80.125V66.5909H426.682V61.8182ZM438.575 72.6591C438.575 68.875 440.928 66.6932 444.234 66.6932C447.473 66.6932 449.382 68.7557 449.382 72.2841V88H455.553V71.3295C455.553 65.0057 451.973 61.4773 446.536 61.4773C442.513 61.4773 439.956 63.3011 438.746 66.267H438.439V53.0909H432.405V88H438.575V72.6591ZM473.433 88.5114C479.536 88.5114 483.729 85.5284 484.82 80.9773L479.058 80.3295C478.223 82.5455 476.178 83.7045 473.518 83.7045C469.53 83.7045 466.888 81.0795 466.837 76.5966H485.075V74.7045C485.075 65.517 479.553 61.4773 473.109 61.4773C465.609 61.4773 460.717 66.983 460.717 75.0625C460.717 83.2784 465.541 88.5114 473.433 88.5114ZM466.854 72.4375C467.041 69.0966 469.513 66.2841 473.195 66.2841C476.74 66.2841 479.126 68.875 479.161 72.4375H466.854ZM502.202 88H508.372V72.0795C508.372 68.858 510.52 66.6761 513.179 66.6761C515.787 66.6761 517.577 68.4318 517.577 71.125V88H523.628V71.6705C523.628 68.7216 525.384 66.6761 528.366 66.6761C530.855 66.6761 532.832 68.142 532.832 71.3807V88H539.02V70.4261C539.02 64.5795 535.645 61.4773 530.838 61.4773C527.037 61.4773 524.139 63.3523 522.98 66.267H522.707C521.702 63.3011 519.162 61.4773 515.634 61.4773C512.122 61.4773 509.497 63.2841 508.406 66.267H508.099V61.8182H502.202V88ZM552.814 88.5284C556.922 88.5284 559.376 86.6023 560.501 84.4034H560.706V88H566.638V70.4773C566.638 63.5568 560.996 61.4773 556.001 61.4773C550.496 61.4773 546.268 63.9318 544.905 68.7045L550.666 69.5227C551.28 67.733 553.018 66.1989 556.036 66.1989C558.899 66.1989 560.467 67.6648 560.467 70.2386V70.3409C560.467 72.1136 558.609 72.1989 553.99 72.6932C548.911 73.2386 544.053 74.7557 544.053 80.6534C544.053 85.8011 547.82 88.5284 552.814 88.5284ZM554.416 83.9943C551.842 83.9943 550.001 82.8182 550.001 80.5511C550.001 78.1818 552.064 77.1932 554.825 76.8011C556.445 76.5795 559.683 76.1705 560.484 75.5227V78.608C560.484 81.5227 558.132 83.9943 554.416 83.9943ZM572.842 88H579.013V61.8182H572.842V88ZM575.945 58.1023C577.905 58.1023 579.507 56.6023 579.507 54.7614C579.507 52.9034 577.905 51.4034 575.945 51.4034C573.967 51.4034 572.365 52.9034 572.365 54.7614C572.365 56.6023 573.967 58.1023 575.945 58.1023ZM591.528 53.0909H585.358V88H591.528V53.0909Z" fill="white"/>
<a href="mailto:support@uiscore.io">
<rect fill="black" fill-opacity="0" x="1.29688" y="-9.04546" width="481.402" height="58.0909"/>
</a>
</svg>
